<svg xmlns="http://www.w3.org/2000/svg" viewBox="0 0 97.33 91">
  <defs/>
  <defs>
    <style>
      .cls-2{fill:#54cefa}
    </style>
  </defs>
  <g id="Layer_2" data-name="Layer 2">
    <g id="Layer_1-2" data-name="Layer 1">
      <path fill="#216582" d="M63.82 43.23l-5.62-1.87a18.35 18.35 0 00-2-4.31l2.58-5a1.23 1.23 0 00-.31-1.58L52 24.24a1.5 1.5 0 00-1.7-.24L45 26.4c-1.52-.72-3-1.29-4.56-1.87l-2-5.32a1.45 1.45 0 00-1.37-1h-9.26a1.82 1.82 0 00-1.52 1l-2 5.32a20.41 20.41 0 00-4.56 1.87l-5.16-2.59a1.74 1.74 0 00-1.83.29l-6.51 6.19a1.28 1.28 0 00-.3 1.58l2.58 5a25.68 25.68 0 00-1.82 4.32l-5.63 1.9A1.75 1.75 0 000 44.53v8.78a1.73 1.73 0 001.06 1.43l5.63 1.87a18 18 0 002 4.32L6.08 66a1.46 1.46 0 00.3 1.72l6.54 6.19a1.69 1.69 0 001.82.29l5.32-2.45c1.52.72 3 1.3 4.56 1.87l2 5.32a1.44 1.44 0 001.37 1h9.27a1.44 1.44 0 001.37-1l2-5.32a20.41 20.41 0 004.56-1.87l5.32 2.45a1.45 1.45 0 001.67-.29l6.54-6.19A1.47 1.47 0 0059 66l-2.73-5.18c.76-1.44 1.36-2.88 2-4.32l5.62-1.87a1.44 1.44 0 001.07-1.44v-8.81a1.4 1.4 0 00-1.14-1.15zM32.5 61.39c-7.1 0-12.84-5.47-12.84-12.22S25.4 37 32.5 37s12.85 5.46 12.85 12.22c0 6.56-5.75 12.17-12.85 12.17z"/>
      <path d="M96 14.73l-3-1c-.3-.71-.6-1.43-.91-2L93.39 9a1.5 1.5 0 00-.3-1.71l-3.64-3.57a1.5 1.5 0 00-1.67-.29L84.9 4.72c-.76-.29-1.36-.57-2.12-.86L81.72 1a1.46 1.46 0 00-1.37-1h-5.46a1.83 1.83 0 00-1.51 1l-1.06 2.86c-.76.29-1.52.57-2.12.86l-2.88-1.29a1.69 1.69 0 00-1.82.29L61.71 7.3A1.44 1.44 0 0061.4 9l1.37 2.72c-.31.71-.61 1.29-.91 2l-3 1A1.4 1.4 0 0057.77 16v5.15a1.4 1.4 0 001.06 1.29l3.07 1 .86 2.15-1.36 2.59a1.46 1.46 0 00.31 1.72l3.79 3.57a1.69 1.69 0 001.82.29l2.88-1.29c.75.29 1.51.57 2.12.86l1.06 2.86a1.5 1.5 0 001.51 1h5.46a1.46 1.46 0 001.37-1l1.06-2.86c.76-.29 1.51-.57 2.12-.86l2.88 1.29a1.74 1.74 0 001.82-.29l3.79-3.57a1.46 1.46 0 00.3-1.72l-1.35-2.69.9-2.18 3-1A1.38 1.38 0 0097.33 21v-5.12A2.67 2.67 0 0096 14.73zM77.53 25.88A7.31 7.31 0 0170 18.69a7.56 7.56 0 0115.11 0 7.41 7.41 0 01-7.58 7.19zM96 61.56l-4.2-1.44A12 12 0 0090.46 57l1.94-3.9a1.29 1.29 0 00-.3-1.59L87 46.56a1.61 1.61 0 00-1.79-.29l-3.88 2A15.51 15.51 0 0078.06 47l-1.34-4a1.48 1.48 0 00-1.5-1h-7.17a1.38 1.38 0 00-.74.14 4.82 4.82 0 01.74 2.46v8.8a4.22 4.22 0 01-3 4l-4.18 1.44c-.3.72-.6 1.44-.89 2l1.94 3.75a4.1 4.1 0 01-.9 5L54.6 75.8a4.85 4.85 0 01-2.54 1.3l-1.35 2.59a1.3 1.3 0 00.3 1.59l5.08 4.91a1.63 1.63 0 001.79.29l4-1.88a15.43 15.43 0 003.33 1.4l1.5 4a1.47 1.47 0 001.49 1h7.17a1.8 1.8 0 001.5-1l1.34-4c1.19-.43 2.24-.87 3.29-1.3l4 1.88a1.67 1.67 0 001.79-.29l5.08-4.91a1.32 1.32 0 00.3-1.59l-1.94-3.89a14.4 14.4 0 001.34-3.18l4.18-1.44a1.43 1.43 0 001-1.44v-6.98a2.91 2.91 0 00-1.25-1.3zM72.85 76.19A9.64 9.64 0 1183 66.56a9.89 9.89 0 01-10.15 9.63z" class="cls-2"/>
    </g>
  </g>
</svg>
