<svg xmlns="http://www.w3.org/2000/svg" data-name="Layer 4" viewBox="0 0 32 40" x="0px" y="0px" fill="#ffffff"><title>Menu</title><path d="M28.5,9h-13a1,1,0,0,1,0-2h13a1,1,0,0,1,0,2Z"/><path d="M28.5,17H2.5a1,1,0,0,1,0-2h26a1,1,0,0,1,0,2Z"/><path d="M15.5,25H2.5a1,1,0,0,1,0-2h13a1,1,0,0,1,0,2Z"/><path d="M6.5,13a5,5,0,1,1,5-5A5.0059,5.0059,0,0,1,6.5,13Zm0-8a3,3,0,1,0,3,3A3.0033,3.0033,0,0,0,6.5,5Z"/><path d="M25.5,29a5,5,0,1,1,5-5A5.0059,5.0059,0,0,1,25.5,29Zm0-8a3,3,0,1,0,3,3A3.0033,3.0033,0,0,0,25.5,21Z"/></svg>